<?xml version="1.0" encoding="UTF-8" standalone="no"?>
<!DOCTYPE svg PUBLIC "-//W3C//DTD SVG 1.1//EN" "http://www.w3.org/Graphics/SVG/1.1/DTD/svg11.dtd">
<!-- Generated by graphviz version 2.40.1 (20161225.0304)
 -->
<!-- Title: Frida_Gum_Stalker Pages: 1 -->
<svg width="1374pt" height="2138pt" viewBox="0.00 0.00 1374.00 2137.80" xmlns="http://www.w3.org/2000/svg" xmlns:xlink="http://www.w3.org/1999/xlink">
<g id="graph0" class="graph" transform="scale(1 1) rotate(0) translate(4 2133.8)">
<title>Frida_Gum_Stalker</title>
<polygon fill="#ffffff" stroke="transparent" points="-4,4 -4,-2133.8 1370,-2133.8 1370,4 -4,4"/>
<g id="clust1" class="cluster">
<title>cluster_gum_linux_modify_thread</title>
<polygon fill="none" stroke="#000000" points="356,-1450.4 356,-2121.8 642,-2121.8 642,-1450.4 356,-1450.4"/>
<text text-anchor="middle" x="499" y="-2105.2" font-family="Times,serif" font-size="14.00" fill="#000000">gum_linux_modify_thread</text>
</g>
<g id="clust2" class="cluster">
<title>cluster_gum_linux_do_modify_thread</title>
<polygon fill="none" stroke="#000000" points="1002,-846.2 1002,-1696 1358,-1696 1358,-846.2 1002,-846.2"/>
<text text-anchor="middle" x="1180" y="-1679.4" font-family="Times,serif" font-size="14.00" fill="#000000">gum_linux_do_modify_thread</text>
</g>
<g id="clust3" class="cluster">
<title>cluster_gum_linux_handle_modify_thread_comms</title>
<polygon fill="none" stroke="#000000" points="650,-1153.2 650,-1600.2 994,-1600.2 994,-1153.2 650,-1153.2"/>
<text text-anchor="middle" x="822" y="-1583.6" font-family="Times,serif" font-size="14.00" fill="#000000">gum_linux_handle_modify_thread_comms</text>
</g>
<g id="clust4" class="cluster">
<title>cluster_gum_do_modify_thread</title>
<polygon fill="none" stroke="#000000" points="484,-951.8 484,-1398.8 642,-1398.8 642,-951.8 484,-951.8"/>
<text text-anchor="middle" x="563" y="-1382.2" font-family="Times,serif" font-size="14.00" fill="#000000">gum_do_modify_thread</text>
</g>
<g id="clust5" class="cluster">
<title>cluster_gum_stalker_infect</title>
<polygon fill="none" stroke="#000000" points="8,-644.8 8,-1303 264,-1303 264,-644.8 8,-644.8"/>
<text text-anchor="middle" x="136" y="-1286.4" font-family="Times,serif" font-size="14.00" fill="#000000">gum_stalker_infect</text>
</g>
<g id="clust6" class="cluster">
<title>cluster_gum_exec_ctx_build_block</title>
<polygon fill="none" stroke="#000000" points="272,-425.8 272,-1028.6 476,-1028.6 476,-425.8 272,-425.8"/>
<text text-anchor="middle" x="374" y="-1012" font-family="Times,serif" font-size="14.00" fill="#000000">gum_exec_ctx_build_block</text>
</g>
<g id="clust7" class="cluster">
<title>cluster_gum_exec_ctx_compile_block</title>
<polygon fill="none" stroke="#000000" points="484,-352.8 484,-721.6 802,-721.6 802,-352.8 484,-352.8"/>
<text text-anchor="middle" x="643" y="-705" font-family="Times,serif" font-size="14.00" fill="#000000">gum_exec_ctx_compile_block</text>
</g>
<g id="clust8" class="cluster">
<title>cluster_gum_default_stalker_transformer_transform_block</title>
<polygon fill="none" stroke="#000000" points="431,-81 431,-333.8 733,-333.8 733,-81 431,-81"/>
<text text-anchor="middle" x="582" y="-317.2" font-family="Times,serif" font-size="14.00" fill="#000000">gum_default_stalker_transformer_transform_block</text>
</g>
<g id="clust9" class="cluster">
<title>cluster_gum_x86_relocator_read_one</title>
<polygon fill="none" stroke="#000000" points="741,-8 741,-238 924,-238 924,-8 741,-8"/>
<text text-anchor="middle" x="832.5" y="-221.4" font-family="Times,serif" font-size="14.00" fill="#000000">gum_x86_relocator_read_one</text>
</g>
<!-- gumjs_stalker_follow -->
<g id="node1" class="node">
<title>gumjs_stalker_follow</title>
<polygon fill="#d3d3d3" stroke="#000000" points="323.0898,-2089 184.9102,-2089 184.9102,-2053 323.0898,-2053 323.0898,-2089"/>
<text text-anchor="middle" x="254" y="-2066.8" font-family="Times,serif" font-size="14.00" fill="#000000">gumjs_stalker_follow</text>
</g>
<!-- gum_stalker_follow -->
<g id="node2" class="node">
<title>gum_stalker_follow</title>
<polygon fill="#d3d3d3" stroke="#000000" points="318.2548,-2016 189.7452,-2016 189.7452,-1980 318.2548,-1980 318.2548,-2016"/>
<text text-anchor="middle" x="254" y="-1993.8" font-family="Times,serif" font-size="14.00" fill="#000000">gum_stalker_follow</text>
</g>
<!-- gumjs_stalker_follow&#45;&gt;gum_stalker_follow -->
<g id="edge1" class="edge">
<title>gumjs_stalker_follow-&gt;gum_stalker_follow</title>
<path fill="none" stroke="#000000" d="M254,-2052.9551C254,-2044.8828 254,-2035.1764 254,-2026.1817"/>
<polygon fill="#000000" stroke="#000000" points="257.5001,-2026.0903 254,-2016.0904 250.5001,-2026.0904 257.5001,-2026.0903"/>
</g>
<!-- gum_process_modify_thread -->
<g id="node3" class="node">
<title>gum_process_modify_thread</title>
<polygon fill="#d3d3d3" stroke="#000000" points="343.792,-1943 164.208,-1943 164.208,-1907 343.792,-1907 343.792,-1943"/>
<text text-anchor="middle" x="254" y="-1920.8" font-family="Times,serif" font-size="14.00" fill="#000000">gum_process_modify_thread</text>
</g>
<!-- gum_stalker_follow&#45;&gt;gum_process_modify_thread -->
<g id="edge2" class="edge">
<title>gum_stalker_follow-&gt;gum_process_modify_thread</title>
<path fill="none" stroke="#000000" d="M254,-1979.9551C254,-1971.8828 254,-1962.1764 254,-1953.1817"/>
<polygon fill="#000000" stroke="#000000" points="257.5001,-1953.0903 254,-1943.0904 250.5001,-1953.0904 257.5001,-1953.0903"/>
</g>
<!-- gum_linux_modify_thread -->
<g id="node4" class="node">
<title>gum_linux_modify_thread</title>
<polygon fill="#d3d3d3" stroke="#000000" points="337.094,-1870 170.906,-1870 170.906,-1834 337.094,-1834 337.094,-1870"/>
<text text-anchor="middle" x="254" y="-1847.8" font-family="Times,serif" font-size="14.00" fill="#000000">gum_linux_modify_thread</text>
</g>
<!-- gum_process_modify_thread&#45;&gt;gum_linux_modify_thread -->
<g id="edge3" class="edge">
<title>gum_process_modify_thread-&gt;gum_linux_modify_thread</title>
<path fill="none" stroke="#000000" d="M254,-1906.9551C254,-1898.8828 254,-1889.1764 254,-1880.1817"/>
<polygon fill="#000000" stroke="#000000" points="257.5001,-1880.0903 254,-1870.0904 250.5001,-1880.0904 257.5001,-1880.0903"/>
</g>
<!-- child = clone(gum_linux_do_modify_thread) -->
<g id="node5" class="node">
<title>child = clone(gum_linux_do_modify_thread)</title>
<polygon fill="#d3d3d3" stroke="#000000" points="633.6257,-2089 364.3743,-2089 364.3743,-2053 633.6257,-2053 633.6257,-2089"/>
<text text-anchor="middle" x="499" y="-2066.8" font-family="Times,serif" font-size="14.00" fill="#000000">child = clone(gum_linux_do_modify_thread)</text>
</g>
<!-- gum_linux_modify_thread&#45;&gt;child = clone(gum_linux_do_modify_thread) -->
<g id="edge27" class="edge">
<title>gum_linux_modify_thread-&gt;child = clone(gum_linux_do_modify_thread)</title>
<path fill="none" stroke="#000000" stroke-width="2" d="M293.5017,-1870.0732C312.4418,-1879.6788 334.8905,-1892.4973 353,-1907 380.489,-1929.0141 444.3539,-2004.6841 477.7654,-2045.0887"/>
<polygon fill="#000000" stroke="#000000" stroke-width="2" points="475.1522,-2047.4211 484.2154,-2052.9083 480.5522,-2042.9669 475.1522,-2047.4211"/>
</g>
<!-- prctl(PR_SET_DUMPABLE, 1) -->
<g id="node6" class="node">
<title>prctl(PR_SET_DUMPABLE, 1)</title>
<polygon fill="#d3d3d3" stroke="#000000" points="597.9734,-1943 400.0266,-1943 400.0266,-1907 597.9734,-1907 597.9734,-1943"/>
<text text-anchor="middle" x="499" y="-1920.8" font-family="Times,serif" font-size="14.00" fill="#000000">prctl(PR_SET_DUMPABLE, 1)</text>
</g>
<!-- child = clone(gum_linux_do_modify_thread)&#45;&gt;prctl(PR_SET_DUMPABLE, 1) -->
<g id="edge4" class="edge">
<title>child = clone(gum_linux_do_modify_thread)-&gt;prctl(PR_SET_DUMPABLE, 1)</title>
<path fill="none" stroke="#000000" d="M499,-2052.8042C499,-2027.8868 499,-1982.8938 499,-1953.4877"/>
<polygon fill="#000000" stroke="#000000" points="502.5001,-1953.4251 499,-1943.4251 495.5001,-1953.4251 502.5001,-1953.4251"/>
</g>
<!-- gum_libc_ptrace(thread_id) -->
<g id="node10" class="node">
<title>gum_libc_ptrace(thread_id)</title>
<polygon fill="#d3d3d3" stroke="#000000" points="1182.2738,-1663.2 1009.7262,-1663.2 1009.7262,-1627.2 1182.2738,-1627.2 1182.2738,-1663.2"/>
<text text-anchor="middle" x="1096" y="-1641" font-family="Times,serif" font-size="14.00" fill="#000000">gum_libc_ptrace(thread_id)</text>
</g>
<!-- child = clone(gum_linux_do_modify_thread)&#45;&gt;gum_libc_ptrace(thread_id) -->
<g id="edge28" class="edge">
<title>child = clone(gum_linux_do_modify_thread)-&gt;gum_libc_ptrace(thread_id)</title>
<path fill="none" stroke="#000000" stroke-width="2" d="M619.147,-2052.9779C673.597,-2041.306 726,-2023.4594 726,-1998 726,-1998 726,-1998 726,-1723.5 726,-1695.5246 889.9876,-1670.0945 999.6166,-1656.2197"/>
<polygon fill="#000000" stroke="#000000" stroke-width="2" points="1000.231,-1659.6702 1009.7184,-1654.9543 999.3609,-1652.7245 1000.231,-1659.6702"/>
<text text-anchor="middle" x="755.1578" y="-1847.8" font-family="Times,serif" font-size="14.00" fill="#000000">libc_clone</text>
</g>
<!-- child = clone(gum_linux_do_modify_thread)&#45;&gt;gum_libc_ptrace(thread_id) -->
<g id="edge40" class="edge">
<title>child = clone(gum_linux_do_modify_thread)-&gt;gum_libc_ptrace(thread_id)</title>
</g>
<!-- prctl(PR_SET_PTRACER, child) -->
<g id="node7" class="node">
<title>prctl(PR_SET_PTRACER, child)</title>
<polygon fill="#d3d3d3" stroke="#000000" points="604.4846,-1797 399.5154,-1797 399.5154,-1761 604.4846,-1761 604.4846,-1797"/>
<text text-anchor="middle" x="502" y="-1774.8" font-family="Times,serif" font-size="14.00" fill="#000000">prctl(PR_SET_PTRACER, child)</text>
</g>
<!-- prctl(PR_SET_DUMPABLE, 1)&#45;&gt;prctl(PR_SET_PTRACER, child) -->
<g id="edge5" class="edge">
<title>prctl(PR_SET_DUMPABLE, 1)-&gt;prctl(PR_SET_PTRACER, child)</title>
<path fill="none" stroke="#000000" d="M499.3739,-1906.8042C499.8859,-1881.8868 500.8104,-1836.8938 501.4146,-1807.4877"/>
<polygon fill="#000000" stroke="#000000" points="504.9151,-1807.4949 501.6214,-1797.4251 497.9166,-1807.3511 504.9151,-1807.4949"/>
</g>
<!-- gum_linux_handle_modify_thread_comms -->
<g id="node8" class="node">
<title>gum_linux_handle_modify_thread_comms</title>
<polygon fill="#d3d3d3" stroke="#000000" points="632.8542,-1663.2 375.1458,-1663.2 375.1458,-1627.2 632.8542,-1627.2 632.8542,-1663.2"/>
<text text-anchor="middle" x="504" y="-1641" font-family="Times,serif" font-size="14.00" fill="#000000">gum_linux_handle_modify_thread_comms</text>
</g>
<!-- prctl(PR_SET_PTRACER, child)&#45;&gt;gum_linux_handle_modify_thread_comms -->
<g id="edge6" class="edge">
<title>prctl(PR_SET_PTRACER, child)-&gt;gum_linux_handle_modify_thread_comms</title>
<path fill="none" stroke="#000000" d="M502.2697,-1760.9551C502.6052,-1738.5108 503.1818,-1699.9356 503.5765,-1673.5324"/>
<polygon fill="#000000" stroke="#000000" points="507.0782,-1673.4375 503.7282,-1663.3863 500.079,-1673.3328 507.0782,-1673.4375"/>
</g>
<!-- prctl(PR_SET_DUMPABLE, 0) -->
<g id="node9" class="node">
<title>prctl(PR_SET_DUMPABLE, 0)</title>
<polygon fill="#d3d3d3" stroke="#000000" points="602.9734,-1494.4 405.0266,-1494.4 405.0266,-1458.4 602.9734,-1458.4 602.9734,-1494.4"/>
<text text-anchor="middle" x="504" y="-1472.2" font-family="Times,serif" font-size="14.00" fill="#000000">prctl(PR_SET_DUMPABLE, 0)</text>
</g>
<!-- gum_linux_handle_modify_thread_comms&#45;&gt;prctl(PR_SET_DUMPABLE, 0) -->
<g id="edge7" class="edge">
<title>gum_linux_handle_modify_thread_comms-&gt;prctl(PR_SET_DUMPABLE, 0)</title>
<path fill="none" stroke="#000000" d="M504,-1627.1354C504,-1597.7691 504,-1539.4586 504,-1504.5978"/>
<polygon fill="#000000" stroke="#000000" points="507.5001,-1504.5898 504,-1494.5898 500.5001,-1504.5898 507.5001,-1504.5898"/>
</g>
<!-- gum_await_ack(GUM_ACK_READ_REGISTERS) -->
<g id="node15" class="node">
<title>gum_await_ack(GUM_ACK_READ_REGISTERS)</title>
<polygon fill="#d3d3d3" stroke="#000000" points="971.9314,-1567.4 662.0686,-1567.4 662.0686,-1531.4 971.9314,-1531.4 971.9314,-1567.4"/>
<text text-anchor="middle" x="817" y="-1545.2" font-family="Times,serif" font-size="14.00" fill="#000000">gum_await_ack(GUM_ACK_READ_REGISTERS)</text>
</g>
<!-- gum_linux_handle_modify_thread_comms&#45;&gt;gum_await_ack(GUM_ACK_READ_REGISTERS) -->
<g id="edge29" class="edge">
<title>gum_linux_handle_modify_thread_comms-&gt;gum_await_ack(GUM_ACK_READ_REGISTERS)</title>
<path fill="none" stroke="#000000" stroke-width="2" d="M562.8729,-1627.1808C615.5792,-1611.0489 692.8828,-1587.3886 748.3759,-1570.4038"/>
<polygon fill="#000000" stroke="#000000" stroke-width="2" points="749.5879,-1573.6932 758.1257,-1567.4197 747.5392,-1566.9997 749.5879,-1573.6932"/>
</g>
<!-- ptrace(PTRACE_PEEKUSER) -->
<g id="node11" class="node">
<title>ptrace(PTRACE_PEEKUSER)</title>
<polygon fill="#d3d3d3" stroke="#000000" points="1227.4566,-1494.4 1036.5434,-1494.4 1036.5434,-1458.4 1227.4566,-1458.4 1227.4566,-1494.4"/>
<text text-anchor="middle" x="1132" y="-1472.2" font-family="Times,serif" font-size="14.00" fill="#000000">ptrace(PTRACE_PEEKUSER)</text>
</g>
<!-- gum_libc_ptrace(thread_id)&#45;&gt;ptrace(PTRACE_PEEKUSER) -->
<g id="edge8" class="edge">
<title>gum_libc_ptrace(thread_id)-&gt;ptrace(PTRACE_PEEKUSER)</title>
<path fill="none" stroke="#000000" d="M1099.8526,-1627.1354C1106.1156,-1597.7691 1118.5515,-1539.4586 1125.9862,-1504.5978"/>
<polygon fill="#000000" stroke="#000000" points="1129.4578,-1505.0999 1128.1207,-1494.5898 1122.6118,-1503.6398 1129.4578,-1505.0999"/>
</g>
<!-- gum_libc_ptrace(thread_id)&#45;&gt;gum_await_ack(GUM_ACK_READ_REGISTERS) -->
<g id="edge41" class="edge">
<title>gum_libc_ptrace(thread_id)-&gt;gum_await_ack(GUM_ACK_READ_REGISTERS)</title>
</g>
<!-- gum_put_ack(GUM_ACK_READ_REGISTERS) -->
<g id="node12" class="node">
<title>gum_put_ack(GUM_ACK_READ_REGISTERS)</title>
<polygon fill="#d3d3d3" stroke="#000000" points="1307.5054,-1270.2 1010.4946,-1270.2 1010.4946,-1234.2 1307.5054,-1234.2 1307.5054,-1270.2"/>
<text text-anchor="middle" x="1159" y="-1248" font-family="Times,serif" font-size="14.00" fill="#000000">gum_put_ack(GUM_ACK_READ_REGISTERS)</text>
</g>
<!-- ptrace(PTRACE_PEEKUSER)&#45;&gt;gum_put_ack(GUM_ACK_READ_REGISTERS) -->
<g id="edge9" class="edge">
<title>ptrace(PTRACE_PEEKUSER)-&gt;gum_put_ack(GUM_ACK_READ_REGISTERS)</title>
<path fill="none" stroke="#000000" d="M1134.2095,-1458.0528C1138.9183,-1418.9523 1149.9692,-1327.1888 1155.589,-1280.524"/>
<polygon fill="#000000" stroke="#000000" points="1159.077,-1280.8331 1156.7978,-1270.4863 1152.1272,-1279.9961 1159.077,-1280.8331"/>
</g>
<!-- gum_await_ack(GUM_ACK_MODIFIED_REGISTERS) -->
<g id="node13" class="node">
<title>gum_await_ack(GUM_ACK_MODIFIED_REGISTERS)</title>
<polygon fill="#d3d3d3" stroke="#000000" points="1350.2499,-1091.6 1009.7501,-1091.6 1009.7501,-1055.6 1350.2499,-1055.6 1350.2499,-1091.6"/>
<text text-anchor="middle" x="1180" y="-1069.4" font-family="Times,serif" font-size="14.00" fill="#000000">gum_await_ack(GUM_ACK_MODIFIED_REGISTERS)</text>
</g>
<!-- gum_put_ack(GUM_ACK_READ_REGISTERS)&#45;&gt;gum_await_ack(GUM_ACK_MODIFIED_REGISTERS) -->
<g id="edge10" class="edge">
<title>gum_put_ack(GUM_ACK_READ_REGISTERS)-&gt;gum_await_ack(GUM_ACK_MODIFIED_REGISTERS)</title>
<path fill="none" stroke="#000000" d="M1161.1292,-1234.092C1164.7925,-1202.9361 1172.3135,-1138.972 1176.6733,-1101.893"/>
<polygon fill="#000000" stroke="#000000" points="1180.1734,-1102.0962 1177.8652,-1091.7559 1173.2213,-1101.2787 1180.1734,-1102.0962"/>
</g>
<!-- gum_put_ack(GUM_ACK_READ_REGISTERS)&#45;&gt;gum_await_ack(GUM_ACK_READ_REGISTERS) -->
<g id="edge36" class="edge">
<title>gum_put_ack(GUM_ACK_READ_REGISTERS)-&gt;gum_await_ack(GUM_ACK_READ_REGISTERS)</title>
<path fill="none" stroke="#0000ff" stroke-dasharray="5,2" d="M1141.0772,-1270.4823C1099.7812,-1312.2141 994.0229,-1416.8649 897,-1494.4 883.3704,-1505.292 867.6828,-1516.3683 853.8301,-1525.6989"/>
<polygon fill="#0000ff" stroke="#0000ff" points="851.8573,-1522.8075 845.4768,-1531.2657 855.7392,-1528.6326 851.8573,-1522.8075"/>
<text text-anchor="middle" x="1035.1224" y="-1427.8" font-family="Times,serif" font-size="14.00" fill="#0000ff">UNIX socket</text>
<text text-anchor="middle" x="1035.1224" y="-1411" font-family="Times,serif" font-size="14.00" fill="#0000ff">IPC notify</text>
</g>
<!-- ptrace(PTRACE_POKEUSER) -->
<g id="node14" class="node">
<title>ptrace(PTRACE_POKEUSER)</title>
<polygon fill="#d3d3d3" stroke="#000000" points="1239.0112,-890.2 1046.9888,-890.2 1046.9888,-854.2 1239.0112,-854.2 1239.0112,-890.2"/>
<text text-anchor="middle" x="1143" y="-868" font-family="Times,serif" font-size="14.00" fill="#000000">ptrace(PTRACE_POKEUSER)</text>
</g>
<!-- gum_await_ack(GUM_ACK_MODIFIED_REGISTERS)&#45;&gt;ptrace(PTRACE_POKEUSER) -->
<g id="edge11" class="edge">
<title>gum_await_ack(GUM_ACK_MODIFIED_REGISTERS)-&gt;ptrace(PTRACE_POKEUSER)</title>
<path fill="none" stroke="#000000" d="M1176.6512,-1055.3719C1170.171,-1020.0981 1155.8767,-942.291 1148.1683,-900.3325"/>
<polygon fill="#000000" stroke="#000000" points="1151.5639,-899.4448 1146.3145,-890.2418 1144.6791,-900.7097 1151.5639,-899.4448"/>
<text text-anchor="middle" x="1209.0954" y="-982" font-family="Times,serif" font-size="14.00" fill="#000000">continue</text>
<text text-anchor="middle" x="1209.0954" y="-965.2" font-family="Times,serif" font-size="14.00" fill="#000000">until recv ack</text>
</g>
<!-- gum_do_modify_thread -->
<g id="node16" class="node">
<title>gum_do_modify_thread</title>
<polygon fill="#d3d3d3" stroke="#000000" points="892.8131,-1366 741.1869,-1366 741.1869,-1330 892.8131,-1330 892.8131,-1366"/>
<text text-anchor="middle" x="817" y="-1343.8" font-family="Times,serif" font-size="14.00" fill="#000000">gum_do_modify_thread</text>
</g>
<!-- gum_await_ack(GUM_ACK_READ_REGISTERS)&#45;&gt;gum_do_modify_thread -->
<g id="edge12" class="edge">
<title>gum_await_ack(GUM_ACK_READ_REGISTERS)-&gt;gum_do_modify_thread</title>
<path fill="none" stroke="#000000" d="M817,-1531.1719C817,-1495.8981 817,-1418.091 817,-1376.1325"/>
<polygon fill="#000000" stroke="#000000" points="820.5001,-1376.0418 817,-1366.0418 813.5001,-1376.0419 820.5001,-1376.0418"/>
<text text-anchor="middle" x="855.0954" y="-1480.6" font-family="Times,serif" font-size="14.00" fill="#000000">continue</text>
<text text-anchor="middle" x="855.0954" y="-1463.8" font-family="Times,serif" font-size="14.00" fill="#000000">until recv ack</text>
</g>
<!-- gum_parse_gp_regs -->
<g id="node18" class="node">
<title>gum_parse_gp_regs</title>
<polygon fill="#d3d3d3" stroke="#000000" points="631.2451,-1366 502.7549,-1366 502.7549,-1330 631.2451,-1330 631.2451,-1366"/>
<text text-anchor="middle" x="567" y="-1343.8" font-family="Times,serif" font-size="14.00" fill="#000000">gum_parse_gp_regs</text>
</g>
<!-- gum_await_ack(GUM_ACK_READ_REGISTERS)&#45;&gt;gum_parse_gp_regs -->
<g id="edge42" class="edge">
<title>gum_await_ack(GUM_ACK_READ_REGISTERS)-&gt;gum_parse_gp_regs</title>
</g>
<!-- gum_put_ack(GUM_ACK_MODIFIED_REGISTERS) -->
<g id="node17" class="node">
<title>gum_put_ack(GUM_ACK_MODIFIED_REGISTERS)</title>
<polygon fill="#d3d3d3" stroke="#000000" points="985.8234,-1197.2 658.1766,-1197.2 658.1766,-1161.2 985.8234,-1161.2 985.8234,-1197.2"/>
<text text-anchor="middle" x="822" y="-1175" font-family="Times,serif" font-size="14.00" fill="#000000">gum_put_ack(GUM_ACK_MODIFIED_REGISTERS)</text>
</g>
<!-- gum_do_modify_thread&#45;&gt;gum_put_ack(GUM_ACK_MODIFIED_REGISTERS) -->
<g id="edge13" class="edge">
<title>gum_do_modify_thread-&gt;gum_put_ack(GUM_ACK_MODIFIED_REGISTERS)</title>
<path fill="none" stroke="#000000" d="M817.5351,-1329.9354C818.4049,-1300.5691 820.1322,-1242.2586 821.1648,-1207.3978"/>
<polygon fill="#000000" stroke="#000000" points="824.6635,-1207.4891 821.4612,-1197.3898 817.6666,-1207.2818 824.6635,-1207.4891"/>
</g>
<!-- gum_do_modify_thread&#45;&gt;gum_parse_gp_regs -->
<g id="edge30" class="edge">
<title>gum_do_modify_thread-&gt;gum_parse_gp_regs</title>
<path fill="none" stroke="#000000" stroke-width="2" d="M741.2592,-1348C708.0886,-1348 674.918,-1348 641.7474,-1348"/>
<polygon fill="#000000" stroke="#000000" stroke-width="2" points="641.4532,-1344.5001 631.4531,-1348 641.4531,-1351.5001 641.4532,-1344.5001"/>
</g>
<!-- gum_put_ack(GUM_ACK_MODIFIED_REGISTERS)&#45;&gt;gum_await_ack(GUM_ACK_MODIFIED_REGISTERS) -->
<g id="edge37" class="edge">
<title>gum_put_ack(GUM_ACK_MODIFIED_REGISTERS)-&gt;gum_await_ack(GUM_ACK_MODIFIED_REGISTERS)</title>
<path fill="none" stroke="#0000ff" stroke-dasharray="5,2" d="M883.1356,-1161.1667C945.7255,-1142.7044 1042.9253,-1114.0332 1108.9108,-1094.5693"/>
<polygon fill="#0000ff" stroke="#0000ff" points="1110.216,-1097.8335 1118.8172,-1091.6472 1108.2355,-1091.1195 1110.216,-1097.8335"/>
<text text-anchor="middle" x="1090.1224" y="-1130.6" font-family="Times,serif" font-size="14.00" fill="#0000ff">UNIX socket</text>
<text text-anchor="middle" x="1090.1224" y="-1113.8" font-family="Times,serif" font-size="14.00" fill="#0000ff">IPC notify</text>
</g>
<!-- gum_stalker_infect -->
<g id="node19" class="node">
<title>gum_stalker_infect</title>
<polygon fill="#d3d3d3" stroke="#000000" points="625.0772,-1197.2 500.9228,-1197.2 500.9228,-1161.2 625.0772,-1161.2 625.0772,-1197.2"/>
<text text-anchor="middle" x="563" y="-1175" font-family="Times,serif" font-size="14.00" fill="#000000">gum_stalker_infect</text>
</g>
<!-- gum_parse_gp_regs&#45;&gt;gum_stalker_infect -->
<g id="edge14" class="edge">
<title>gum_parse_gp_regs-&gt;gum_stalker_infect</title>
<path fill="none" stroke="#000000" d="M566.5719,-1329.9354C565.876,-1300.5691 564.4943,-1242.2586 563.6682,-1207.3978"/>
<polygon fill="#000000" stroke="#000000" points="567.1671,-1207.3041 563.431,-1197.3898 560.169,-1207.4699 567.1671,-1207.3041"/>
</g>
<!-- gum_stalker_create_exec_ctx -->
<g id="node21" class="node">
<title>gum_stalker_create_exec_ctx</title>
<polygon fill="#d3d3d3" stroke="#000000" points="256.3652,-1270.2 73.6348,-1270.2 73.6348,-1234.2 256.3652,-1234.2 256.3652,-1270.2"/>
<text text-anchor="middle" x="165" y="-1248" font-family="Times,serif" font-size="14.00" fill="#000000">gum_stalker_create_exec_ctx</text>
</g>
<!-- gum_parse_gp_regs&#45;&gt;gum_stalker_create_exec_ctx -->
<g id="edge43" class="edge">
<title>gum_parse_gp_regs-&gt;gum_stalker_create_exec_ctx</title>
</g>
<!-- gum_unparse_gp_regs -->
<g id="node20" class="node">
<title>gum_unparse_gp_regs</title>
<polygon fill="#d3d3d3" stroke="#000000" points="634.245,-995.8 491.755,-995.8 491.755,-959.8 634.245,-959.8 634.245,-995.8"/>
<text text-anchor="middle" x="563" y="-973.6" font-family="Times,serif" font-size="14.00" fill="#000000">gum_unparse_gp_regs</text>
</g>
<!-- gum_stalker_infect&#45;&gt;gum_unparse_gp_regs -->
<g id="edge15" class="edge">
<title>gum_stalker_infect-&gt;gum_unparse_gp_regs</title>
<path fill="none" stroke="#000000" d="M563,-1160.9719C563,-1125.6981 563,-1047.891 563,-1005.9325"/>
<polygon fill="#000000" stroke="#000000" points="566.5001,-1005.8418 563,-995.8418 559.5001,-1005.8419 566.5001,-1005.8418"/>
</g>
<!-- gum_stalker_infect&#45;&gt;gum_stalker_create_exec_ctx -->
<g id="edge31" class="edge">
<title>gum_stalker_infect-&gt;gum_stalker_create_exec_ctx</title>
<path fill="none" stroke="#000000" stroke-width="2" d="M500.9056,-1190.5892C438.2687,-1202.0779 340.5139,-1220.0077 266.5777,-1233.5689"/>
<polygon fill="#000000" stroke="#000000" stroke-width="2" points="265.5137,-1230.2056 256.3092,-1235.4523 266.7766,-1237.0907 265.5137,-1230.2056"/>
</g>
<!-- gum_unparse_gp_regs&#45;&gt;ptrace(PTRACE_POKEUSER) -->
<g id="edge39" class="edge">
<title>gum_unparse_gp_regs-&gt;ptrace(PTRACE_POKEUSER)</title>
<path fill="none" stroke="#ff0000" stroke-dasharray="5,2" d="M634.41,-964.7985C735.1786,-946.4516 919.8276,-912.8328 1036.7375,-891.5471"/>
<polygon fill="#ff0000" stroke="#ff0000" points="1037.5721,-894.9528 1046.7834,-889.7181 1036.3182,-888.066 1037.5721,-894.9528"/>
<text text-anchor="middle" x="984.655" y="-929.2" font-family="Times,serif" font-size="14.00" fill="#ff0000">hijack thread PC</text>
<text text-anchor="middle" x="984.655" y="-912.4" font-family="Times,serif" font-size="14.00" fill="#ff0000">to stalker space</text>
</g>
<!-- gum_exec_ctx_obtain_block_for -->
<g id="node22" class="node">
<title>gum_exec_ctx_obtain_block_for</title>
<polygon fill="#d3d3d3" stroke="#000000" points="255.5618,-1091.6 54.4382,-1091.6 54.4382,-1055.6 255.5618,-1055.6 255.5618,-1091.6"/>
<text text-anchor="middle" x="155" y="-1069.4" font-family="Times,serif" font-size="14.00" fill="#000000">gum_exec_ctx_obtain_block_for</text>
</g>
<!-- gum_stalker_create_exec_ctx&#45;&gt;gum_exec_ctx_obtain_block_for -->
<g id="edge16" class="edge">
<title>gum_stalker_create_exec_ctx-&gt;gum_exec_ctx_obtain_block_for</title>
<path fill="none" stroke="#000000" d="M163.9861,-1234.092C162.2417,-1202.9361 158.6602,-1138.972 156.5842,-1101.893"/>
<polygon fill="#000000" stroke="#000000" points="160.0702,-1101.5446 156.0166,-1091.7559 153.0812,-1101.936 160.0702,-1101.5446"/>
</g>
<!-- gum_exec_block_new -->
<g id="node25" class="node">
<title>gum_exec_block_new</title>
<polygon fill="#d3d3d3" stroke="#000000" points="432.9608,-995.8 291.0392,-995.8 291.0392,-959.8 432.9608,-959.8 432.9608,-995.8"/>
<text text-anchor="middle" x="362" y="-973.6" font-family="Times,serif" font-size="14.00" fill="#000000">gum_exec_block_new</text>
</g>
<!-- gum_stalker_create_exec_ctx&#45;&gt;gum_exec_block_new -->
<g id="edge44" class="edge">
<title>gum_stalker_create_exec_ctx-&gt;gum_exec_block_new</title>
</g>
<!-- gum_exec_ctx_write instrumented code -->
<g id="node23" class="node">
<title>gum_exec_ctx_write instrumented code</title>
<polygon fill="#d3d3d3" stroke="#000000" points="255.9286,-890.2 16.0714,-890.2 16.0714,-854.2 255.9286,-854.2 255.9286,-890.2"/>
<text text-anchor="middle" x="136" y="-868" font-family="Times,serif" font-size="14.00" fill="#000000">gum_exec_ctx_write instrumented code</text>
</g>
<!-- gum_exec_ctx_obtain_block_for&#45;&gt;gum_exec_ctx_write instrumented code -->
<g id="edge17" class="edge">
<title>gum_exec_ctx_obtain_block_for-&gt;gum_exec_ctx_write instrumented code</title>
<path fill="none" stroke="#000000" d="M153.2804,-1055.3719C149.9527,-1020.0981 142.6124,-942.291 138.654,-900.3325"/>
<polygon fill="#000000" stroke="#000000" points="142.1259,-899.8689 137.7021,-890.2418 135.1568,-900.5264 142.1259,-899.8689"/>
</g>
<!-- gum_exec_ctx_obtain_block_for&#45;&gt;gum_exec_block_new -->
<g id="edge32" class="edge">
<title>gum_exec_ctx_obtain_block_for-&gt;gum_exec_block_new</title>
<path fill="none" stroke="#000000" stroke-width="2" d="M203.9185,-1055.5519C223.9998,-1047.7743 247.3396,-1038.2565 268,-1028.6 286.0078,-1020.1833 305.4098,-1009.9122 321.8837,-1000.8137"/>
<polygon fill="#000000" stroke="#000000" stroke-width="2" points="323.6742,-1003.8227 330.7072,-995.8988 320.2679,-997.7074 323.6742,-1003.8227"/>
</g>
<!-- cpu_context&#45;&gt;rip = infect_body -->
<g id="node24" class="node">
<title>cpu_context-&gt;rip = infect_body</title>
<polygon fill="#ff0000" stroke="#ff0000" points="250.2972,-688.8 55.7028,-688.8 55.7028,-652.8 250.2972,-652.8 250.2972,-688.8"/>
<text text-anchor="middle" x="153" y="-666.6" font-family="Times,serif" font-size="14.00" fill="#ffffff">cpu_context-&gt;rip = infect_body</text>
</g>
<!-- gum_exec_ctx_write instrumented code&#45;&gt;cpu_context&#45;&gt;rip = infect_body -->
<g id="edge18" class="edge">
<title>gum_exec_ctx_write instrumented code-&gt;cpu_context-&gt;rip = infect_body</title>
<path fill="none" stroke="#000000" d="M137.5386,-853.9719C140.516,-818.6981 147.0837,-740.891 150.6254,-698.9325"/>
<polygon fill="#000000" stroke="#000000" points="154.1235,-699.1008 151.4771,-688.8418 147.1483,-698.512 154.1235,-699.1008"/>
</g>
<!-- cpu_context&#45;&gt;rip = infect_body&#45;&gt;gum_unparse_gp_regs -->
<g id="edge38" class="edge">
<title>cpu_context-&gt;rip = infect_body-&gt;gum_unparse_gp_regs</title>
<path fill="none" stroke="#ff0000" stroke-dasharray="5,2" d="M250.1815,-683.5771C333.8593,-696.3937 446.3074,-718.5407 480,-748.6 539.5985,-801.7715 556.4325,-901.1119 561.1643,-949.6507"/>
<polygon fill="#ff0000" stroke="#ff0000" points="557.6894,-950.0913 562.0435,-959.7501 564.663,-949.4842 557.6894,-950.0913"/>
<text text-anchor="middle" x="568.0421" y="-823.6" font-family="Times,serif" font-size="14.00" fill="#ff0000">infected PC</text>
<text text-anchor="middle" x="568.0421" y="-806.8" font-family="Times,serif" font-size="14.00" fill="#ff0000">save to regs</text>
</g>
<!-- gum_exec_ctx_compile_block -->
<g id="node26" class="node">
<title>gum_exec_ctx_compile_block</title>
<polygon fill="#d3d3d3" stroke="#000000" points="467.8459,-784.6 280.1541,-784.6 280.1541,-748.6 467.8459,-748.6 467.8459,-784.6"/>
<text text-anchor="middle" x="374" y="-762.4" font-family="Times,serif" font-size="14.00" fill="#000000">gum_exec_ctx_compile_block</text>
</g>
<!-- gum_exec_block_new&#45;&gt;gum_exec_ctx_compile_block -->
<g id="edge19" class="edge">
<title>gum_exec_block_new-&gt;gum_exec_ctx_compile_block</title>
<path fill="none" stroke="#000000" d="M363.0231,-959.7932C365.1123,-923.0231 369.8827,-839.0636 372.3909,-794.9197"/>
<polygon fill="#000000" stroke="#000000" points="375.8894,-795.0437 372.9624,-784.8612 368.9007,-794.6465 375.8894,-795.0437"/>
</g>
<!-- gum_x86_relocator_reset -->
<g id="node29" class="node">
<title>gum_x86_relocator_reset</title>
<polygon fill="#d3d3d3" stroke="#000000" points="651.5618,-688.8 492.4382,-688.8 492.4382,-652.8 651.5618,-652.8 651.5618,-688.8"/>
<text text-anchor="middle" x="572" y="-666.6" font-family="Times,serif" font-size="14.00" fill="#000000">gum_x86_relocator_reset</text>
</g>
<!-- gum_exec_block_new&#45;&gt;gum_x86_relocator_reset -->
<g id="edge45" class="edge">
<title>gum_exec_block_new-&gt;gum_x86_relocator_reset</title>
</g>
<!-- gum_exec_block_commit -->
<g id="node27" class="node">
<title>gum_exec_block_commit</title>
<polygon fill="#d3d3d3" stroke="#000000" points="454.9171,-615.8 293.0829,-615.8 293.0829,-579.8 454.9171,-579.8 454.9171,-615.8"/>
<text text-anchor="middle" x="374" y="-593.6" font-family="Times,serif" font-size="14.00" fill="#000000">gum_exec_block_commit</text>
</g>
<!-- gum_exec_ctx_compile_block&#45;&gt;gum_exec_block_commit -->
<g id="edge20" class="edge">
<title>gum_exec_ctx_compile_block-&gt;gum_exec_block_commit</title>
<path fill="none" stroke="#000000" d="M374,-748.5354C374,-719.1691 374,-660.8586 374,-625.9978"/>
<polygon fill="#000000" stroke="#000000" points="377.5001,-625.9898 374,-615.9898 370.5001,-625.9898 377.5001,-625.9898"/>
</g>
<!-- gum_exec_ctx_compile_block&#45;&gt;gum_x86_relocator_reset -->
<g id="edge33" class="edge">
<title>gum_exec_ctx_compile_block-&gt;gum_x86_relocator_reset</title>
<path fill="none" stroke="#000000" stroke-width="2" d="M419.3322,-748.5612C438.2809,-740.711 460.4061,-731.1373 480,-721.6 497.2793,-713.1893 515.9137,-703.1001 531.8632,-694.1373"/>
<polygon fill="#000000" stroke="#000000" stroke-width="2" points="533.9368,-696.9853 540.9131,-689.0116 530.4869,-690.8944 533.9368,-696.9853"/>
</g>
<!-- gum_metal_hash_table_insert -->
<g id="node28" class="node">
<title>gum_metal_hash_table_insert</title>
<polygon fill="#d3d3d3" stroke="#000000" points="465.9622,-469.8 282.0378,-469.8 282.0378,-433.8 465.9622,-433.8 465.9622,-469.8"/>
<text text-anchor="middle" x="374" y="-447.6" font-family="Times,serif" font-size="14.00" fill="#000000">gum_metal_hash_table_insert</text>
</g>
<!-- gum_exec_block_commit&#45;&gt;gum_metal_hash_table_insert -->
<g id="edge21" class="edge">
<title>gum_exec_block_commit-&gt;gum_metal_hash_table_insert</title>
<path fill="none" stroke="#000000" d="M374,-579.6042C374,-554.6868 374,-509.6938 374,-480.2877"/>
<polygon fill="#000000" stroke="#000000" points="377.5001,-480.2251 374,-470.2251 370.5001,-480.2251 377.5001,-480.2251"/>
</g>
<!-- gum_ensure_code_readable -->
<g id="node30" class="node">
<title>gum_ensure_code_readable</title>
<polygon fill="#d3d3d3" stroke="#000000" points="696.264,-542.8 523.736,-542.8 523.736,-506.8 696.264,-506.8 696.264,-542.8"/>
<text text-anchor="middle" x="610" y="-520.6" font-family="Times,serif" font-size="14.00" fill="#000000">gum_ensure_code_readable</text>
</g>
<!-- gum_x86_relocator_reset&#45;&gt;gum_ensure_code_readable -->
<g id="edge22" class="edge">
<title>gum_x86_relocator_reset-&gt;gum_ensure_code_readable</title>
<path fill="none" stroke="#000000" d="M576.7359,-652.6042C583.2213,-627.6868 594.9317,-582.6938 602.5854,-553.2877"/>
<polygon fill="#000000" stroke="#000000" points="606.0727,-553.7843 605.2044,-543.2251 599.2984,-552.0211 606.0727,-553.7843"/>
</g>
<!-- gum_default_stalker_transformer_transform_block -->
<g id="node31" class="node">
<title>gum_default_stalker_transformer_transform_block</title>
<polygon fill="#d3d3d3" stroke="#000000" points="794.402,-396.8 491.598,-396.8 491.598,-360.8 794.402,-360.8 794.402,-396.8"/>
<text text-anchor="middle" x="643" y="-374.6" font-family="Times,serif" font-size="14.00" fill="#000000">gum_default_stalker_transformer_transform_block</text>
</g>
<!-- gum_ensure_code_readable&#45;&gt;gum_default_stalker_transformer_transform_block -->
<g id="edge23" class="edge">
<title>gum_ensure_code_readable-&gt;gum_default_stalker_transformer_transform_block</title>
<path fill="none" stroke="#000000" d="M614.1127,-506.6042C619.7448,-481.6868 629.9144,-436.6938 636.561,-407.2877"/>
<polygon fill="#000000" stroke="#000000" points="640.0446,-407.7507 638.8354,-397.2251 633.2168,-406.2074 640.0446,-407.7507"/>
</g>
<!-- gum_stalker_iterator_next -->
<g id="node32" class="node">
<title>gum_stalker_iterator_next</title>
<polygon fill="#d3d3d3" stroke="#000000" points="724.7338,-301 561.2662,-301 561.2662,-265 724.7338,-265 724.7338,-301"/>
<text text-anchor="middle" x="643" y="-278.8" font-family="Times,serif" font-size="14.00" fill="#000000">gum_stalker_iterator_next</text>
</g>
<!-- gum_default_stalker_transformer_transform_block&#45;&gt;gum_stalker_iterator_next -->
<g id="edge34" class="edge">
<title>gum_default_stalker_transformer_transform_block-&gt;gum_stalker_iterator_next</title>
<path fill="none" stroke="#000000" stroke-width="2" d="M643,-360.7808C643,-346.9527 643,-327.593 643,-311.6477"/>
<polygon fill="#000000" stroke="#000000" stroke-width="2" points="646.5001,-311.2641 643,-301.2642 639.5001,-311.2642 646.5001,-311.2641"/>
</g>
<!-- gum_stalker_iterator_keep -->
<g id="node33" class="node">
<title>gum_stalker_iterator_keep</title>
<polygon fill="#d3d3d3" stroke="#000000" points="708.0576,-125 541.9424,-125 541.9424,-89 708.0576,-89 708.0576,-125"/>
<text text-anchor="middle" x="625" y="-102.8" font-family="Times,serif" font-size="14.00" fill="#000000">gum_stalker_iterator_keep</text>
</g>
<!-- gum_stalker_iterator_next&#45;&gt;gum_stalker_iterator_keep -->
<g id="edge24" class="edge">
<title>gum_stalker_iterator_next-&gt;gum_stalker_iterator_keep</title>
<path fill="none" stroke="#000000" d="M623.0564,-264.728C616.2472,-257.196 609.4565,-247.9109 605.8976,-238 593.6376,-203.8582 603.7567,-162.0194 613.3198,-134.9531"/>
<polygon fill="#000000" stroke="#000000" points="616.6865,-135.9423 616.9099,-125.3498 610.1297,-133.491 616.6865,-135.9423"/>
<text text-anchor="middle" x="620.5512" y="-191.4" font-family="Times,serif" font-size="14.00" fill="#000000">while</text>
<text text-anchor="middle" x="620.5512" y="-174.6" font-family="Times,serif" font-size="14.00" fill="#000000">loop</text>
</g>
<!-- cs_malloc -->
<g id="node34" class="node">
<title>cs_malloc</title>
<polygon fill="#d3d3d3" stroke="#000000" points="828.2606,-205.2 755.7394,-205.2 755.7394,-169.2 828.2606,-169.2 828.2606,-205.2"/>
<text text-anchor="middle" x="792" y="-183" font-family="Times,serif" font-size="14.00" fill="#000000">cs_malloc</text>
</g>
<!-- gum_stalker_iterator_next&#45;&gt;cs_malloc -->
<g id="edge35" class="edge">
<title>gum_stalker_iterator_next-&gt;cs_malloc</title>
<path fill="none" stroke="#000000" stroke-width="2" d="M687.5436,-264.987C703.7031,-257.6094 721.728,-248.361 737,-238 747.7566,-230.7024 758.5019,-221.3546 767.6035,-212.6718"/>
<polygon fill="#000000" stroke="#000000" stroke-width="2" points="770.1333,-215.0931 774.8263,-205.5943 765.2341,-210.0933 770.1333,-215.0931"/>
</g>
<!-- gum_stalker_iterator_keep&#45;&gt;gum_stalker_iterator_next -->
<g id="edge25" class="edge">
<title>gum_stalker_iterator_keep-&gt;gum_stalker_iterator_next</title>
<path fill="none" stroke="#000000" d="M629.7634,-125.1995C632.3513,-135.8494 635.3513,-149.5994 637,-162 641.2016,-193.6013 642.5312,-230.1986 642.9168,-254.798"/>
<polygon fill="#000000" stroke="#000000" points="639.4178,-254.9163 643.0322,-264.8756 646.4173,-254.8361 639.4178,-254.9163"/>
<text text-anchor="middle" x="657.1522" y="-199.8" font-family="Times,serif" font-size="14.00" fill="#000000">if not</text>
<text text-anchor="middle" x="657.1522" y="-183" font-family="Times,serif" font-size="14.00" fill="#000000">reach</text>
<text text-anchor="middle" x="657.1522" y="-166.2" font-family="Times,serif" font-size="14.00" fill="#000000">EoB</text>
</g>
<!-- cs_disasm_iter -->
<g id="node35" class="node">
<title>cs_disasm_iter</title>
<polygon fill="#d3d3d3" stroke="#000000" points="848.7008,-52 749.2992,-52 749.2992,-16 848.7008,-16 848.7008,-52"/>
<text text-anchor="middle" x="799" y="-29.8" font-family="Times,serif" font-size="14.00" fill="#000000">cs_disasm_iter</text>
</g>
<!-- cs_malloc&#45;&gt;cs_disasm_iter -->
<g id="edge26" class="edge">
<title>cs_malloc-&gt;cs_disasm_iter</title>
<path fill="none" stroke="#000000" d="M792.8305,-169.0243C794.0356,-142.6494 796.2803,-93.5223 797.7042,-62.359"/>
<polygon fill="#000000" stroke="#000000" points="801.2104,-62.3014 798.1706,-52.152 794.2177,-61.9818 801.2104,-62.3014"/>
</g>
</g>
</svg>